<?xml version="1.0" encoding="UTF-8" standalone="no"?>
<!DOCTYPE svg PUBLIC "-//W3C//DTD SVG 1.1//EN"
 "http://www.w3.org/Graphics/SVG/1.1/DTD/svg11.dtd">
<!-- Generated by graphviz version 2.40.1 (20161225.0304)
 -->
<!-- Title: %3 Pages: 1 -->
<svg width="997pt" height="347pt"
 viewBox="0.00 0.00 996.67 347.00" xmlns="http://www.w3.org/2000/svg" xmlns:xlink="http://www.w3.org/1999/xlink">
<g id="graph0" class="graph" transform="scale(1 1) rotate(0) translate(4 343)">
<title>%3</title>
<polygon fill="#ffffff" stroke="transparent" points="-4,4 -4,-343 992.6671,-343 992.6671,4 -4,4"/>
<!-- T -->
<g id="node1" class="node">
<title>T</title>
<ellipse fill="none" stroke="#000000" cx="236.6671" cy="-321" rx="27" ry="18"/>
<text text-anchor="middle" x="236.6671" y="-317.3" font-family="Times,serif" font-size="14.00" fill="#000000">T</text>
</g>
<!-- W -->
<g id="node2" class="node">
<title>W</title>
<ellipse fill="none" stroke="#000000" cx="461.6671" cy="-321" rx="27" ry="18"/>
<text text-anchor="middle" x="461.6671" y="-317.3" font-family="Times,serif" font-size="14.00" fill="#000000">W</text>
</g>
<!-- T&#45;&gt;W -->
<g id="edge1" class="edge">
<title>T&#45;&gt;W</title>
<path fill="none" stroke="#0000ff" d="M263.8074,-321C305.1107,-321 383.6533,-321 428.355,-321"/>
<polygon fill="#0000ff" stroke="#0000ff" points="428.4306,-323.1001 434.4306,-321 428.4306,-318.9001 428.4306,-323.1001"/>
<text text-anchor="start" x="346.6671" y="-328.8" font-family="Times,serif" font-weight="bold" font-size="14.00" fill="#0000ff">f</text>
</g>
<!-- OT -->
<g id="node4" class="node">
<title>OT</title>
<polygon fill="none" stroke="#000000" points="276.1671,-108 197.1671,-108 197.1671,-72 276.1671,-72 276.1671,-108"/>
<text text-anchor="middle" x="236.6671" y="-86.3" font-family="Times,serif" font-size="14.00" fill="#000000">Option&lt;T&gt;</text>
</g>
<!-- T&#45;&gt;OT -->
<g id="edge7" class="edge">
<title>T:s&#45;&gt;OT:n</title>
<path fill="none" stroke="#000000" d="M236.6671,-303C236.6671,-218.5339 236.6671,-195.8088 236.6671,-114.478"/>
<polygon fill="#000000" stroke="#000000" points="238.7672,-114 236.6671,-108 234.5672,-114 238.7672,-114"/>
<text text-anchor="middle" x="220.6671" y="-209.507" font-family="Times,serif" font-size="14.00" fill="#000000">Some</text>
</g>
<!-- OW -->
<g id="node5" class="node">
<title>OW</title>
<polygon fill="none" stroke="#000000" points="503.6671,-108 419.6671,-108 419.6671,-72 503.6671,-72 503.6671,-108"/>
<text text-anchor="middle" x="461.6671" y="-86.3" font-family="Times,serif" font-size="14.00" fill="#000000">Option&lt;W&gt;</text>
</g>
<!-- T&#45;&gt;OW -->
<g id="edge3" class="edge">
<title>T&#45;&gt;OW</title>
<path fill="none" stroke="#0000ff" d="M251.43,-305.8434C290.0722,-266.1708 394.342,-159.1204 439.8855,-112.3624"/>
<polygon fill="#0000ff" stroke="#0000ff" points="441.4233,-113.7934 444.1055,-108.03 438.4146,-110.8628 441.4233,-113.7934"/>
<text text-anchor="start" x="356.6671" y="-202.8" font-family="Times,serif" font-weight="bold" font-size="14.00" fill="#0000ff">f_? </text>
</g>
<!-- Z -->
<g id="node3" class="node">
<title>Z</title>
<ellipse fill="none" stroke="#000000" cx="769.6671" cy="-321" rx="27" ry="18"/>
<text text-anchor="middle" x="769.6671" y="-317.3" font-family="Times,serif" font-size="14.00" fill="#000000">Z</text>
</g>
<!-- W&#45;&gt;Z -->
<g id="edge2" class="edge">
<title>W&#45;&gt;Z</title>
<path fill="none" stroke="#0000ff" d="M488.7301,-321C545.0717,-321 674.8185,-321 736.2526,-321"/>
<polygon fill="#0000ff" stroke="#0000ff" points="736.3347,-323.1001 742.3347,-321 736.3347,-318.9001 736.3347,-323.1001"/>
<text text-anchor="start" x="612.1671" y="-328.8" font-family="Times,serif" font-weight="bold" font-size="14.00" fill="#0000ff">g</text>
</g>
<!-- OT&#45;&gt;T -->
<g id="edge11" class="edge">
<title>OT:w&#45;&gt;T:w</title>
<path fill="none" stroke="#000000" d="M197.6671,-90C96.9703,-90 106.4181,-311.6225 203.457,-320.7125"/>
<polygon fill="#000000" stroke="#000000" points="203.5764,-322.8202 209.6671,-321 203.7707,-318.6247 203.5764,-322.8202"/>
<text text-anchor="middle" x="63.5" y="-215.6873" font-family="Times,serif" font-size="14.00" fill="#000000">.unwrap_or_default(t) &#160;</text>
</g>
<!-- OT&#45;&gt;OT -->
<g id="edge4" class="edge">
<title>OT:s&#45;&gt;OT:s</title>
<path fill="none" stroke="#000000" d="M236.6671,-72C272.6671,-53 272.6671,-15 236.6671,-15 202.4952,-15 200.76,-49.2386 231.4613,-68.9659"/>
<polygon fill="#000000" stroke="#000000" points="230.4258,-70.7931 236.6671,-72 232.5407,-67.1644 230.4258,-70.7931"/>
<text text-anchor="middle" x="236.6671" y="-3.8" font-family="Times,serif" font-size="14.00" fill="#000000">.xor(t_?)</text>
</g>
<!-- OT&#45;&gt;OW -->
<g id="edge9" class="edge">
<title>OT&#45;&gt;OW</title>
<path fill="none" stroke="#000000" d="M276.3747,-90C314.5341,-90 372.275,-90 413.1433,-90"/>
<polygon fill="#000000" stroke="#000000" points="413.2989,-92.1001 419.2989,-90 413.2988,-87.9001 413.2989,-92.1001"/>
<text text-anchor="middle" x="347.9171" y="-96.8" font-family="Times,serif" font-size="14.00" fill="#000000">.and_then(f)</text>
</g>
<!-- OW&#45;&gt;W -->
<g id="edge12" class="edge">
<title>OW&#45;&gt;W</title>
<path fill="none" stroke="#000000" d="M458.7881,-108.2845C455.5715,-129.7148 450.5664,-166.3295 448.6671,-198 446.5934,-232.58 452.2961,-272.4241 456.7976,-297.1645"/>
<polygon fill="#000000" stroke="#000000" points="454.7435,-297.6049 457.9107,-303.1166 458.8719,-296.8328 454.7435,-297.6049"/>
<text text-anchor="middle" x="489.6671" y="-201.8" font-family="Times,serif" font-size="14.00" fill="#000000">.unwrap_or(w)</text>
</g>
<!-- OW&#45;&gt;Z -->
<g id="edge8" class="edge">
<title>OW:ne&#45;&gt;Z:sw</title>
<path fill="none" stroke="#000000" d="M503.6671,-108C602.6659,-206.9988 652.7192,-205.5935 750.284,-301.6507"/>
<polygon fill="#000000" stroke="#000000" points="748.9289,-303.2644 754.6671,-306 751.8872,-300.2831 748.9289,-303.2644"/>
<text text-anchor="middle" x="674.6671" y="-201.8" font-family="Times,serif" font-size="14.00" fill="#000000">.map_or(z,g)</text>
</g>
<!-- OW&#45;&gt;OW -->
<g id="edge5" class="edge">
<title>OW:s&#45;&gt;OW:s</title>
<path fill="none" stroke="#000000" d="M461.6671,-72C497.6671,-53 497.6671,-15 461.6671,-15 427.4952,-15 425.76,-49.2386 456.4613,-68.9659"/>
<polygon fill="#000000" stroke="#000000" points="455.4258,-70.7931 461.6671,-72 457.5407,-67.1644 455.4258,-70.7931"/>
<text text-anchor="middle" x="461.6671" y="-3.8" font-family="Times,serif" font-size="14.00" fill="#000000">.and(w_?)</text>
</g>
<!-- OZ -->
<g id="node6" class="node">
<title>OZ</title>
<polygon fill="none" stroke="#000000" points="809.1671,-108 730.1671,-108 730.1671,-72 809.1671,-72 809.1671,-108"/>
<text text-anchor="middle" x="769.6671" y="-86.3" font-family="Times,serif" font-size="14.00" fill="#000000">Option&lt;Z&gt;</text>
</g>
<!-- OW&#45;&gt;OZ -->
<g id="edge10" class="edge">
<title>OW&#45;&gt;OZ</title>
<path fill="none" stroke="#000000" d="M503.8474,-90C561.3912,-90 664.1276,-90 723.6194,-90"/>
<polygon fill="#000000" stroke="#000000" points="723.9461,-92.1001 729.9461,-90 723.946,-87.9001 723.9461,-92.1001"/>
<text text-anchor="middle" x="616.9171" y="-96.8" font-family="Times,serif" font-size="14.00" fill="#000000">.map(g)</text>
</g>
<!-- OZ&#45;&gt;Z -->
<g id="edge13" class="edge">
<title>OZ&#45;&gt;Z</title>
<path fill="none" stroke="#000000" d="M766.7881,-108.2845C763.5715,-129.7148 758.5664,-166.3295 756.6671,-198 754.5934,-232.58 760.2961,-272.4241 764.7976,-297.1645"/>
<polygon fill="#000000" stroke="#000000" points="762.7435,-297.6049 765.9107,-303.1166 766.8719,-296.8328 762.7435,-297.6049"/>
<text text-anchor="start" x="756.6671" y="-202.8" font-family="Times,serif" font-weight="bold" font-size="14.00" fill="#ff0000">.unwrap() </text>
</g>
<!-- OZ&#45;&gt;Z -->
<g id="edge14" class="edge">
<title>OZ:e&#45;&gt;Z:e</title>
<path fill="none" stroke="#000000" d="M808.6671,-90C909.3639,-90 899.9161,-311.6225 802.8773,-320.7125"/>
<polygon fill="#000000" stroke="#000000" points="802.5636,-318.6247 796.6671,-321 802.7578,-322.8202 802.5636,-318.6247"/>
<text text-anchor="start" x="879.6671" y="-202.8" font-family="Times,serif" font-weight="bold" font-size="14.00" fill="#ff0000">.expect(&#39;message&#39;) </text>
</g>
<!-- OZ&#45;&gt;OZ -->
<g id="edge6" class="edge">
<title>OZ:s&#45;&gt;OZ:s</title>
<path fill="none" stroke="#000000" d="M769.6671,-72C805.6671,-53 805.6671,-15 769.6671,-15 735.4952,-15 733.76,-49.2386 764.4613,-68.9659"/>
<polygon fill="#000000" stroke="#000000" points="763.4258,-70.7931 769.6671,-72 765.5407,-67.1644 763.4258,-70.7931"/>
<text text-anchor="middle" x="769.6671" y="-3.8" font-family="Times,serif" font-size="14.00" fill="#000000">.or(z_?)</text>
</g>
</g>
</svg>
